<svg width="32" height="32" viewBox="0 0 32 32" fill="none" xmlns="http://www.w3.org/2000/svg">
<rect width="32" height="32" rx="5" fill="#0061FF"/>
<rect x="5.04729" y="9.96282" width="21.9054" height="14.9899" rx="1.28002" stroke="white" stroke-width="2.09458"/>
<mask id="path-3-inside-1" fill="white">
<path d="M20.4533 7.4428C20.4533 6.52971 19.9841 5.65402 19.1489 5.00837C18.3136 4.36272 17.1808 4 15.9996 4C14.8184 4 13.6856 4.36272 12.8504 5.00837C12.0151 5.65402 11.5459 6.52971 11.5459 7.44279L13.7426 7.4428C13.7426 6.98007 13.9804 6.53631 14.4037 6.20911C14.8269 5.88192 15.401 5.69811 15.9996 5.69811C16.5982 5.69811 17.1723 5.88192 17.5955 6.20911C18.0188 6.53631 18.2566 6.98008 18.2566 7.4428H20.4533Z"/>
</mask>
<path d="M20.4533 7.4428C20.4533 6.52971 19.9841 5.65402 19.1489 5.00837C18.3136 4.36272 17.1808 4 15.9996 4C14.8184 4 13.6856 4.36272 12.8504 5.00837C12.0151 5.65402 11.5459 6.52971 11.5459 7.44279L13.7426 7.4428C13.7426 6.98007 13.9804 6.53631 14.4037 6.20911C14.8269 5.88192 15.401 5.69811 15.9996 5.69811C16.5982 5.69811 17.1723 5.88192 17.5955 6.20911C18.0188 6.53631 18.2566 6.98008 18.2566 7.4428H20.4533Z" fill="#C4C4C4" stroke="white" stroke-width="2.32731" mask="url(#path-3-inside-1)"/>
<mask id="path-4-inside-2" fill="white">
<path d="M12.6441 16.3466C12.0375 16.3466 11.5296 16.8565 11.7657 17.4153C11.9812 17.9254 12.3501 18.3945 12.8502 18.7811C13.6854 19.4267 14.8182 19.7894 15.9994 19.7894C17.1806 19.7894 18.3134 19.4267 19.1487 18.7811C19.6488 18.3945 20.0176 17.9254 20.2331 17.4153C20.4692 16.8565 19.9614 16.3466 19.3548 16.3466V16.3466C18.7482 16.3466 18.2586 16.8905 17.8533 17.3418C17.7772 17.4265 17.691 17.5064 17.5953 17.5803C17.1721 17.9075 16.598 18.0913 15.9994 18.0913C15.4008 18.0913 14.8267 17.9075 14.4035 17.5803C14.3078 17.5064 14.2217 17.4265 14.1456 17.3418C13.7402 16.8905 13.2507 16.3466 12.6441 16.3466V16.3466Z"/>
</mask>
<path d="M12.6441 16.3466C12.0375 16.3466 11.5296 16.8565 11.7657 17.4153C11.9812 17.9254 12.3501 18.3945 12.8502 18.7811C13.6854 19.4267 14.8182 19.7894 15.9994 19.7894C17.1806 19.7894 18.3134 19.4267 19.1487 18.7811C19.6488 18.3945 20.0176 17.9254 20.2331 17.4153C20.4692 16.8565 19.9614 16.3466 19.3548 16.3466V16.3466C18.7482 16.3466 18.2586 16.8905 17.8533 17.3418C17.7772 17.4265 17.691 17.5064 17.5953 17.5803C17.1721 17.9075 16.598 18.0913 15.9994 18.0913C15.4008 18.0913 14.8267 17.9075 14.4035 17.5803C14.3078 17.5064 14.2217 17.4265 14.1456 17.3418C13.7402 16.8905 13.2507 16.3466 12.6441 16.3466V16.3466Z" fill="#C4C4C4" stroke="white" stroke-width="2.32731" mask="url(#path-4-inside-2)"/>
</svg>
