<svg width="65" height="65" viewBox="0 0 65 65" fill="none" xmlns="http://www.w3.org/2000/svg">
<rect x="0.261719" y="0.241272" width="64" height="64" fill="#F2F5FF"/>
<path d="M18.5137 35.6781H25.3874" stroke="#0061FF" stroke-width="2" stroke-linecap="round" stroke-linejoin="round"/>
<path d="M18.5137 40.2606H25.3874" stroke="#0061FF" stroke-width="2" stroke-linecap="round" stroke-linejoin="round"/>
<path d="M18.5137 44.8431H25.3874" stroke="#0061FF" stroke-width="2" stroke-linecap="round" stroke-linejoin="round"/>
<path d="M18.5137 26.5132H25.3874" stroke="#0061FF" stroke-width="2" stroke-linecap="round" stroke-linejoin="round"/>
<path d="M18.5137 31.0956H25.3874" stroke="#0061FF" stroke-width="2" stroke-linecap="round" stroke-linejoin="round"/>
<path d="M42.5703 35.6781H44.8615" stroke="#0061FF" stroke-width="2" stroke-linecap="round" stroke-linejoin="round"/>
<path d="M42.5703 40.2606H44.8615" stroke="#0061FF" stroke-width="2" stroke-linecap="round" stroke-linejoin="round"/>
<path d="M42.5703 44.8431H44.8615" stroke="#0061FF" stroke-width="2" stroke-linecap="round" stroke-linejoin="round"/>
<path d="M42.5703 31.0956H44.8615" stroke="#0061FF" stroke-width="2" stroke-linecap="round" stroke-linejoin="round"/>
<path d="M15.8399 19.6395H28.0598C28.2624 19.6395 28.4567 19.7199 28.5999 19.8632C28.7431 20.0064 28.8236 20.2007 28.8236 20.4032V49.4255H15.8399C15.6374 49.4255 15.4431 49.345 15.2999 49.2018C15.1566 49.0586 15.0762 48.8643 15.0762 48.6618V20.4032C15.0762 20.2007 15.1566 20.0064 15.2999 19.8632C15.4431 19.7199 15.6374 19.6395 15.8399 19.6395V19.6395Z" stroke="#0061FF" stroke-width="2" stroke-linecap="round" stroke-linejoin="round"/>
<path d="M28.8242 33.3869H37.9892V49.4255H28.8242V33.3869Z" stroke="#0061FF" stroke-width="2" stroke-linecap="round" stroke-linejoin="round"/>
<path d="M38.752 24.2219H48.6807C48.8833 24.2219 49.0775 24.3024 49.2208 24.4456C49.364 24.5888 49.4445 24.7831 49.4445 24.9857V48.6618C49.4445 48.8643 49.364 49.0586 49.2208 49.2018C49.0775 49.345 48.8833 49.4255 48.6807 49.4255H37.9883V24.9857C37.9883 24.7831 38.0687 24.5888 38.212 24.4456C38.3552 24.3024 38.5495 24.2219 38.752 24.2219Z" stroke="#0061FF" stroke-width="2" stroke-linecap="round" stroke-linejoin="round"/>
<path d="M19.6582 15.057V19.6395" stroke="#0061FF" stroke-width="2" stroke-linecap="round" stroke-linejoin="round"/>
</svg>
