<svg width="29" height="29" viewBox="0 0 29 29" fill="none" xmlns="http://www.w3.org/2000/svg">
<rect width="29" height="29" fill="url(#paint0_radial)"/>
<path d="M11.5269 14.6675C11.5269 13.0938 12.8023 11.8177 14.376 11.8177C15.9498 11.8177 17.2259 13.0938 17.2259 14.6675C17.2259 16.2413 15.9498 17.5174 14.376 17.5174C12.8023 17.5174 11.5269 16.2413 11.5269 14.6675V14.6675ZM9.98629 14.6675C9.98629 17.092 11.9516 19.0573 14.376 19.0573C16.8005 19.0573 18.7658 17.092 18.7658 14.6675C18.7658 12.2431 16.8005 10.2778 14.376 10.2778C11.9516 10.2778 9.98636 12.2429 9.98636 14.6675H9.98629ZM17.9138 10.1037C17.9137 10.3066 17.9738 10.505 18.0864 10.6737C18.1991 10.8425 18.3593 10.974 18.5467 11.0518C18.7341 11.1295 18.9404 11.1499 19.1394 11.1104C19.3384 11.0709 19.5212 10.9732 19.6648 10.8298C19.8083 10.6864 19.9061 10.5037 19.9457 10.3047C19.9854 10.1057 19.9652 9.89943 19.8876 9.71194C19.81 9.52446 19.6786 9.36419 19.5099 9.2514C19.3413 9.13861 19.143 9.07836 18.9401 9.07828H18.9397C18.6677 9.07841 18.4069 9.18647 18.2145 9.37874C18.0222 9.57102 17.914 9.83177 17.9138 10.1037V10.1037ZM10.9223 21.6262C10.0888 21.5883 9.63578 21.4494 9.33473 21.3321C8.9356 21.1767 8.65081 20.9917 8.3514 20.6927C8.05198 20.3937 7.86664 20.1092 7.71194 19.71C7.59458 19.4091 7.45575 18.9559 7.41786 18.1225C7.37641 17.2213 7.36814 16.9506 7.36814 14.6677C7.36814 12.3847 7.3771 12.1148 7.41786 11.2129C7.45582 10.3794 7.59568 9.92715 7.71194 9.62534C7.86733 9.22621 8.05239 8.94143 8.3514 8.64201C8.6504 8.3426 8.93491 8.15726 9.33473 8.00256C9.63565 7.8852 10.0888 7.74636 10.9223 7.70847C11.8234 7.66703 12.0941 7.65875 14.376 7.65875C16.658 7.65875 16.929 7.66758 17.8308 7.70861C18.6643 7.74657 19.1166 7.88643 19.4184 8.00269C19.8175 8.15739 20.1023 8.34314 20.4017 8.64215C20.7011 8.94116 20.8858 9.22635 21.0412 9.62548C21.1585 9.9264 21.2974 10.3796 21.3353 11.213C21.3767 12.1149 21.385 12.3849 21.385 14.6678C21.385 16.9508 21.3767 17.2207 21.3353 18.1226C21.2973 18.9561 21.1578 19.4091 21.0412 19.7102C20.8858 20.1093 20.7007 20.3941 20.4017 20.6928C20.1027 20.9915 19.8175 21.1769 19.4184 21.3323C19.1175 21.4496 18.6643 21.5885 17.8308 21.6263C16.9297 21.6678 16.659 21.6761 14.376 21.6761C12.0931 21.6761 11.8231 21.6678 10.9223 21.6263V21.6262ZM10.8515 6.17042C9.94142 6.21187 9.31954 6.35617 8.77645 6.5675C8.21434 6.78574 7.73786 7.07852 7.26206 7.55357C6.78627 8.02861 6.49424 8.50516 6.276 9.06795C6.06467 9.61139 5.92037 10.2329 5.87892 11.143C5.83679 12.0545 5.82715 12.3459 5.82715 14.6675C5.82715 16.9892 5.83679 17.2806 5.87892 18.1921C5.92037 19.1022 6.06467 19.7237 6.276 20.2671C6.49424 20.8292 6.78633 21.3067 7.26206 21.7815C7.73779 22.2564 8.21366 22.5487 8.77645 22.7676C9.32057 22.9789 9.94142 23.1232 10.8515 23.1647C11.7635 23.2061 12.0544 23.2164 14.376 23.2164C16.6977 23.2164 16.9891 23.2068 17.9006 23.1647C18.8107 23.1232 19.4322 22.9789 19.9756 22.7676C20.5377 22.5487 21.0142 22.2566 21.49 21.7815C21.9658 21.3065 22.2572 20.8292 22.4761 20.2671C22.6874 19.7237 22.8324 19.1022 22.8732 18.1921C22.9146 17.2799 22.9243 16.9892 22.9243 14.6675C22.9243 12.3459 22.9146 12.0545 22.8732 11.143C22.8317 10.2329 22.6874 9.61105 22.4761 9.06795C22.2572 8.50585 21.9651 8.02936 21.49 7.55357C21.015 7.07777 20.5377 6.78574 19.9763 6.5675C19.4322 6.35617 18.8107 6.21119 17.9013 6.17042C16.9896 6.12877 16.6983 6.11865 14.3771 6.11865C12.0558 6.11865 11.7638 6.1283 10.8518 6.17042" fill="white"/>
<defs>
<radialGradient id="paint0_radial" cx="0" cy="0" r="1" gradientUnits="userSpaceOnUse" gradientTransform="translate(1.87685 28.3647) scale(36.8192)">
<stop offset="0.09" stop-color="#FA8F21"/>
<stop offset="0.78" stop-color="#EB2482"/>
</radialGradient>
</defs>
</svg>
