<svg width="72" height="72" viewBox="0 0 72 72" fill="none" xmlns="http://www.w3.org/2000/svg">
<rect width="72" height="72" fill="#F2F5FF"/>
<path d="M36 38.9786V33.0179" stroke="#0061FF" stroke-width="3" stroke-linecap="round" stroke-linejoin="round"/>
<path d="M36 28.6687C36.1976 28.6687 36.3871 28.5902 36.5268 28.4504C36.6666 28.3107 36.7451 28.1212 36.7451 27.9236" stroke="#0061FF" stroke-width="3" stroke-linecap="round" stroke-linejoin="round"/>
<path d="M35.2549 27.9236C35.2549 28.1212 35.3334 28.3107 35.4731 28.4504C35.6128 28.5902 35.8024 28.6687 36 28.6687" stroke="#0061FF" stroke-width="3" stroke-linecap="round" stroke-linejoin="round"/>
<path d="M36 27.1785C35.8024 27.1785 35.6128 27.257 35.4731 27.3967C35.3334 27.5364 35.2549 27.7259 35.2549 27.9235" stroke="#0061FF" stroke-width="3" stroke-linecap="round" stroke-linejoin="round"/>
<path d="M36.7451 27.9235C36.7451 27.7259 36.6666 27.5364 36.5268 27.3967C36.3871 27.257 36.1976 27.1785 36 27.1785" stroke="#0061FF" stroke-width="3" stroke-linecap="round" stroke-linejoin="round"/>
<path d="M53.8819 31.5278C53.8812 28.1444 52.9207 24.8307 51.1118 21.9714C49.303 19.1122 46.7202 16.8247 43.6633 15.3748C40.6063 13.9249 37.2008 13.3719 33.8422 13.7802C30.4835 14.1885 27.3096 15.5412 24.6891 17.6813C22.0686 19.8214 20.109 22.661 19.0379 25.8704C17.9668 29.0797 17.8282 32.5271 18.6381 35.812C19.448 39.097 21.1733 42.0848 23.6134 44.4284C26.0536 46.7721 29.1087 48.3753 32.4236 49.052L36 58.3505L39.5764 49.052C43.6154 48.2275 47.2455 46.0329 49.8524 42.8395C52.4593 39.6461 53.8827 35.6501 53.8819 31.5278V31.5278Z" stroke="#0061FF" stroke-width="3" stroke-linecap="round" stroke-linejoin="round"/>
</svg>
