<svg width="29" height="29" viewBox="0 0 29 29" fill="none" xmlns="http://www.w3.org/2000/svg">
<g clip-path="url(#clip0)">
<rect width="29" height="29" fill="#FF0000"/>
<rect width="29.1355" height="29.1355" rx="14.5677" fill="#FF0000"/>
<path d="M14.9418 20.6694L11.4749 20.6046C10.3524 20.582 9.22707 20.6271 8.12657 20.3932C6.45244 20.0437 6.33384 18.33 6.20974 16.8926C6.03874 14.8717 6.10494 12.8142 6.42764 10.8102C6.60981 9.6857 7.32675 9.01473 8.43547 8.94172C12.1782 8.67674 15.9458 8.70814 19.6803 8.83177C20.0747 8.8431 20.4718 8.90504 20.8607 8.97555C22.7804 9.31942 22.8272 11.2614 22.9517 12.8962C23.0758 14.5478 23.0234 16.2079 22.7862 17.8483C22.5959 19.2065 22.2318 20.3455 20.6952 20.4555C18.77 20.5992 16.889 20.715 14.9583 20.6781C14.9584 20.6694 14.9473 20.6694 14.9418 20.6694ZM12.9036 17.2308C14.3544 16.3796 15.7775 15.5425 17.2201 14.6969C15.7665 13.8457 14.3461 13.0086 12.9036 12.1631V17.2308Z" fill="white"/>
</g>
<defs>
<clipPath id="clip0">
<rect width="29" height="29" fill="white"/>
</clipPath>
</defs>
</svg>
