<svg width="29" height="29" viewBox="0 0 29 29" fill="none" xmlns="http://www.w3.org/2000/svg">
<g clip-path="url(#clip0)">
<rect width="29" height="29" fill="#54E447"/>
<rect width="29.1352" height="29.1352" rx="14.5676" fill="#54E447"/>
<path fill-rule="evenodd" clip-rule="evenodd" d="M20.5701 7.63683C18.9645 6.02988 16.8292 5.14446 14.5542 5.14355C9.86675 5.14355 6.0517 8.95714 6.04982 13.6447C6.0492 15.143 6.44082 16.6057 7.185 17.8949L5.97852 22.3005L10.4868 21.1183C11.729 21.7955 13.1275 22.1525 14.5508 22.1531H14.5543C19.2414 22.1531 23.0568 18.339 23.0587 13.6515C23.0596 11.3798 22.1758 9.24378 20.5701 7.63683V7.63683ZM14.5543 20.7172H14.5514C13.2831 20.7167 12.0391 20.3761 10.9538 19.7322L10.6957 19.5791L8.02042 20.2807L8.73451 17.6731L8.56642 17.4058C7.85886 16.2807 7.48514 14.9803 7.4857 13.6452C7.48725 9.74912 10.6582 6.57943 14.5571 6.57943C16.4451 6.58015 18.2199 7.31612 19.5544 8.65176C20.889 9.98741 21.6235 11.7628 21.6228 13.6509C21.6212 17.5473 18.4503 20.7172 14.5543 20.7172V20.7172ZM18.4315 15.425C18.219 15.3186 17.1743 14.8047 16.9795 14.7338C16.7848 14.6629 16.6431 14.6275 16.5014 14.8402C16.3598 15.0528 15.9526 15.5313 15.8286 15.6731C15.7046 15.8149 15.5807 15.8326 15.3682 15.7262C15.1557 15.6199 14.471 15.3956 13.6594 14.6719C13.0277 14.1087 12.6012 13.413 12.4772 13.2003C12.3533 12.9876 12.4641 12.8727 12.5704 12.7668C12.666 12.6716 12.7829 12.5187 12.8892 12.3946C12.9954 12.2706 13.0308 12.182 13.1016 12.0402C13.1725 11.8984 13.1371 11.7743 13.0839 11.668C13.0308 11.5617 12.6059 10.5161 12.4288 10.0908C12.2563 9.67656 12.0811 9.73261 11.9507 9.72612C11.8269 9.71996 11.685 9.71864 11.5434 9.71864C11.4017 9.71864 11.1715 9.77182 10.9767 9.98446C10.782 10.1971 10.2331 10.7111 10.2331 11.7566C10.2331 12.8022 10.9945 13.8123 11.1007 13.9541C11.2069 14.0959 12.5991 16.2416 14.7307 17.1617C15.2377 17.3806 15.6335 17.5112 15.9421 17.6092C16.4512 17.7708 16.9144 17.748 17.2806 17.6933C17.6888 17.6324 18.5378 17.1794 18.7149 16.6832C18.8919 16.187 18.8919 15.7617 18.8388 15.6731C18.7857 15.5845 18.644 15.5313 18.4315 15.425" fill="white"/>
</g>
<defs>
<clipPath id="clip0">
<rect width="29" height="29" fill="white"/>
</clipPath>
</defs>
</svg>
