<svg width="14" height="16" viewBox="0 0 14 16" fill="none" xmlns="http://www.w3.org/2000/svg">
<path fill-rule="evenodd" clip-rule="evenodd" d="M4.36184 1.59272C5.06149 0.893062 6.01043 0.5 6.99989 0.5C7.98935 0.5 8.93828 0.893062 9.63794 1.59272C10.3376 2.29237 10.7307 3.24131 10.7307 4.23077C10.7307 5.22023 10.3376 6.16917 9.63794 6.86882C8.93828 7.56848 7.98935 7.96154 6.99989 7.96154C6.01043 7.96154 5.06149 7.56848 4.36184 6.86882C3.66218 6.16917 3.26912 5.22023 3.26912 4.23077C3.26912 3.24131 3.66218 2.29237 4.36184 1.59272ZM6.99989 1.5C6.27564 1.5 5.58106 1.78771 5.06894 2.29982C4.55682 2.81194 4.26912 3.50652 4.26912 4.23077C4.26912 4.95501 4.55682 5.6496 5.06894 6.16172C5.58106 6.67383 6.27564 6.96154 6.99989 6.96154C7.72413 6.96154 8.41872 6.67383 8.93083 6.16172C9.44295 5.6496 9.73066 4.95501 9.73066 4.23077C9.73066 3.50652 9.44295 2.81194 8.93083 2.29982C8.41872 1.78771 7.72413 1.5 6.99989 1.5ZM7 9.34616C5.54131 9.34616 4.14236 9.92562 3.11091 10.9571C2.07946 11.9885 1.5 13.3875 1.5 14.8462C1.5 15.1223 1.27614 15.3462 1 15.3462C0.723858 15.3462 0.5 15.1223 0.5 14.8462C0.5 13.1223 1.18482 11.4689 2.40381 10.25C3.62279 9.03098 5.27609 8.34616 7 8.34616C8.72391 8.34616 10.3772 9.03098 11.5962 10.25C12.8152 11.4689 13.5 13.1223 13.5 14.8462C13.5 15.1223 13.2761 15.3462 13 15.3462C12.7239 15.3462 12.5 15.1223 12.5 14.8462C12.5 13.3875 11.9205 11.9885 10.8891 10.9571C9.85764 9.92562 8.45869 9.34616 7 9.34616Z" fill="#686781"/>
</svg>
