<svg width="64" height="64" viewBox="0 0 64 64" fill="none" xmlns="http://www.w3.org/2000/svg">
<rect width="64" height="64" fill="#F2F5FF"/>
<path d="M33.1844 14C30.1904 13.9957 27.2499 14.7927 24.6679 16.3083C22.086 17.8238 19.9566 20.0027 18.5008 22.6189C17.0451 25.2351 16.316 28.1932 16.3892 31.1862C16.4624 34.1792 17.3353 37.0981 18.9172 39.64L13.9844 50L24.3428 45.0656C26.5518 46.4396 29.0498 47.2818 31.6399 47.5259C34.23 47.7699 36.8413 47.4091 39.2681 46.4719C41.695 45.5347 43.871 44.0467 45.6248 42.1251C47.3785 40.2036 48.662 37.901 49.3741 35.3988C50.0863 32.8966 50.2076 30.2633 49.7285 27.7062C49.2495 25.1492 48.1831 22.7384 46.6134 20.6637C45.0438 18.589 43.0138 16.9073 40.6834 15.7509C38.353 14.5945 35.7859 13.9952 33.1844 14V14Z" stroke="#0061FF" stroke-width="2" stroke-linecap="round" stroke-linejoin="round"/>
<path d="M25.9848 30.2C25.8661 30.2 25.7501 30.2352 25.6514 30.3011C25.5528 30.3671 25.4759 30.4608 25.4304 30.5704C25.385 30.68 25.3731 30.8007 25.3963 30.9171C25.4194 31.0335 25.4766 31.1404 25.5605 31.2243C25.6444 31.3082 25.7513 31.3653 25.8677 31.3885C25.9841 31.4116 26.1047 31.3998 26.2144 31.3543C26.324 31.3089 26.4177 31.232 26.4836 31.1334C26.5496 31.0347 26.5848 30.9187 26.5848 30.8C26.5848 30.6409 26.5216 30.4883 26.409 30.3757C26.2965 30.2632 26.1439 30.2 25.9848 30.2Z" fill="#0061FF" stroke="#0061FF" stroke-width="2" stroke-linecap="round" stroke-linejoin="round"/>
<path d="M33.183 30.2C33.0643 30.2 32.9483 30.2352 32.8497 30.3011C32.751 30.3671 32.6741 30.4608 32.6287 30.5704C32.5833 30.68 32.5714 30.8007 32.5945 30.9171C32.6177 31.0335 32.6748 31.1404 32.7587 31.2243C32.8427 31.3082 32.9496 31.3653 33.066 31.3885C33.1823 31.4116 33.303 31.3998 33.4126 31.3543C33.5223 31.3089 33.616 31.232 33.6819 31.1334C33.7478 31.0347 33.783 30.9187 33.783 30.8C33.783 30.6409 33.7198 30.4883 33.6073 30.3757C33.4947 30.2632 33.3421 30.2 33.183 30.2Z" fill="#0061FF" stroke="#0061FF" stroke-width="2" stroke-linecap="round" stroke-linejoin="round"/>
<path d="M40.3842 30.2C40.2655 30.2 40.1495 30.2352 40.0508 30.3011C39.9522 30.3671 39.8753 30.4608 39.8299 30.5704C39.7844 30.68 39.7726 30.8007 39.7957 30.9171C39.8189 31.0335 39.876 31.1404 39.9599 31.2243C40.0438 31.3082 40.1507 31.3653 40.2671 31.3885C40.3835 31.4116 40.5042 31.3998 40.6138 31.3543C40.7234 31.3089 40.8171 31.232 40.8831 31.1334C40.949 31.0347 40.9842 30.9187 40.9842 30.8C40.9842 30.6409 40.921 30.4883 40.8084 30.3757C40.6959 30.2632 40.5433 30.2 40.3842 30.2Z" fill="#0061FF" stroke="#0061FF" stroke-width="2" stroke-linecap="round" stroke-linejoin="round"/>
</svg>
