<svg width="29" height="29" viewBox="0 0 29 29" fill="none" xmlns="http://www.w3.org/2000/svg">
<g clip-path="url(#clip0)">
<rect width="29" height="29" fill="#157EE7"/>
<rect width="29.1352" height="29.1352" rx="14.5676" fill="#157EE7"/>
<path d="M7.07959 9.09381C7.07959 8.61357 7.24824 8.21738 7.58554 7.90524C7.92283 7.59308 8.36133 7.43701 8.901 7.43701C9.43104 7.43701 9.85988 7.59068 10.1875 7.89803C10.5248 8.21499 10.6935 8.62798 10.6935 9.13703C10.6935 9.59805 10.5297 9.98223 10.202 10.2896C9.86471 10.6065 9.4214 10.765 8.87209 10.765H8.85763C8.32759 10.765 7.89875 10.6065 7.57108 10.2896C7.24342 9.97263 7.07959 9.57404 7.07959 9.09381ZM7.26751 21.6999V12.076H10.4767V21.6999H7.26751ZM12.2547 21.6999H15.4638V16.3261C15.4638 15.9899 15.5024 15.7306 15.5795 15.5481C15.7144 15.2216 15.9192 14.9454 16.1939 14.7197C16.4685 14.494 16.813 14.3812 17.2274 14.3812C18.3068 14.3812 18.8465 15.1063 18.8465 16.5566V21.6999H22.0556V16.182C22.0556 14.7605 21.7183 13.6824 21.0437 12.9477C20.3691 12.2129 19.4777 11.8455 18.3694 11.8455C17.1262 11.8455 16.1577 12.3786 15.4638 13.4447V13.4735H15.4494L15.4638 13.4447V12.076H12.2547C12.274 12.3834 12.2836 13.339 12.2836 14.943C12.2836 16.547 12.274 18.7993 12.2547 21.6999Z" fill="white"/>
</g>
<defs>
<clipPath id="clip0">
<rect width="29" height="29" fill="white"/>
</clipPath>
</defs>
</svg>
