<svg width="72" height="72" viewBox="0 0 72 72" fill="none" xmlns="http://www.w3.org/2000/svg">
<rect width="72" height="72" fill="#F2F5FF"/>
<path d="M26.2908 24.9038C26.2908 27.4788 27.3137 29.9484 29.1346 31.7693C30.9554 33.5901 33.425 34.613 36.0001 34.613C38.5751 34.613 41.0447 33.5901 42.8656 31.7693C44.6864 29.9484 45.7094 27.4788 45.7094 24.9038C45.7094 22.3287 44.6864 19.8591 42.8656 18.0382C41.0447 16.2174 38.5751 15.1945 36.0001 15.1945C33.425 15.1945 30.9554 16.2174 29.1346 18.0382C27.3137 19.8591 26.2908 22.3287 26.2908 24.9038V24.9038Z" stroke="#0061FF" stroke-width="3" stroke-linecap="round" stroke-linejoin="round"/>
<path d="M17.9685 56.8056C17.9685 52.0233 19.8683 47.4369 23.2498 44.0554C26.6314 40.6738 31.2178 38.774 36 38.774C40.7823 38.774 45.3687 40.6738 48.7503 44.0554C52.1318 47.4369 54.0316 52.0233 54.0316 56.8056" stroke="#0061FF" stroke-width="3" stroke-linecap="round" stroke-linejoin="round"/>
</svg>
