<svg width="29" height="29" viewBox="0 0 29 29" fill="none" xmlns="http://www.w3.org/2000/svg">
<g clip-path="url(#clip0)">
<rect width="29" height="29" fill="#009EFF"/>
<rect width="29.1355" height="29.1355" rx="14.5677" fill="#009EFF"/>
<path d="M17.0189 8.45176V8.44897H17.743L18.0075 8.50181C18.1839 8.53612 18.344 8.58107 18.4879 8.63669C18.6318 8.69231 18.771 8.7572 18.9056 8.83136C19.0402 8.90551 19.1623 8.98107 19.2718 9.05801C19.3805 9.13402 19.4779 9.21467 19.5643 9.29995C19.6496 9.38616 19.7828 9.40841 19.9639 9.36669C20.1449 9.32498 20.3398 9.26704 20.5487 9.19288C20.7575 9.11873 20.9641 9.0353 21.1683 8.9426C21.3725 8.84989 21.4969 8.79103 21.5415 8.766C21.5851 8.74006 21.6083 8.72615 21.6111 8.72429L21.6139 8.72012L21.6278 8.71317L21.6417 8.70621L21.6556 8.69926L21.6696 8.69231L21.6723 8.68814L21.6765 8.68536L21.6807 8.68258L21.6835 8.6784L21.6974 8.67423L21.7113 8.67145L21.7086 8.69231L21.7044 8.71317L21.6974 8.73402L21.6904 8.75488L21.6835 8.76879L21.6765 8.78269L21.6696 8.80355C21.6649 8.81745 21.6603 8.83599 21.6556 8.85917C21.651 8.88235 21.6069 8.97504 21.5234 9.13726C21.4398 9.29949 21.3354 9.46403 21.2101 9.63089C21.0847 9.79774 20.9724 9.92381 20.8731 10.0091C20.7729 10.0953 20.7065 10.1556 20.674 10.1899C20.6415 10.2251 20.6021 10.2575 20.5556 10.2872L20.486 10.3331L20.4721 10.34L20.4582 10.347L20.4554 10.3512L20.4512 10.3539L20.447 10.3567L20.4442 10.3609L20.4303 10.3678L20.4164 10.3748L20.4136 10.379L20.4094 10.3817L20.4053 10.3845L20.4025 10.3887L20.3997 10.3929L20.3955 10.3957L20.3913 10.3984L20.3885 10.4026H20.4582L20.848 10.3192C21.108 10.2636 21.3563 10.1964 21.593 10.1176L21.9689 9.99241L22.0107 9.97851L22.0316 9.97155L22.0455 9.9646L22.0594 9.95765L22.0734 9.9507L22.0873 9.94374L22.1151 9.93957L22.143 9.93679V9.9646L22.136 9.96738L22.1291 9.97155L22.1263 9.97573L22.1221 9.97851L22.1179 9.98129L22.1151 9.98546L22.1124 9.98963L22.1082 9.99241L22.104 9.99519L22.1012 9.99936L22.0984 10.0035L22.0942 10.0063L22.0873 10.0202L22.0803 10.0341L22.0761 10.0369C22.0743 10.0397 22.0154 10.1185 21.8993 10.2733C21.7833 10.429 21.7206 10.5078 21.7113 10.5097C21.7021 10.5125 21.6891 10.5264 21.6723 10.5514C21.6566 10.5773 21.5582 10.6807 21.3772 10.8615C21.1961 11.0422 21.0189 11.2031 20.8453 11.344C20.6708 11.4858 20.5826 11.6601 20.5807 11.8668C20.5779 12.0726 20.5672 12.3053 20.5487 12.5648C20.5301 12.8244 20.4953 13.1048 20.4442 13.406C20.3932 13.7073 20.3143 14.048 20.2075 14.4281C20.1008 14.8081 19.9708 15.1789 19.8177 15.5404C19.6645 15.902 19.5044 16.2264 19.3373 16.5138C19.1702 16.8012 19.017 17.0445 18.8778 17.2438C18.7385 17.4431 18.597 17.6308 18.4531 17.8069C18.3092 17.9831 18.1273 18.1814 17.9073 18.4021C17.6864 18.6218 17.5657 18.7423 17.5453 18.7636C17.5239 18.784 17.4329 18.86 17.2723 18.9916C17.1127 19.1242 16.9409 19.2567 16.7571 19.3893C16.5743 19.5209 16.4063 19.6308 16.2531 19.7188C16.0999 19.8069 15.9152 19.9075 15.6989 20.0206C15.4836 20.1346 15.2506 20.2403 14.9999 20.3376C14.7493 20.4349 14.4847 20.5253 14.2063 20.6088C13.9278 20.6922 13.6586 20.7571 13.3987 20.8034C13.1387 20.8498 12.844 20.8892 12.5145 20.9216L12.0202 20.9703V20.9772H11.1151V20.9703L10.9968 20.9633C10.9179 20.9587 10.8529 20.9541 10.8018 20.9494C10.7508 20.9448 10.5581 20.9193 10.224 20.8729C9.88979 20.8266 9.62755 20.7802 9.43725 20.7339C9.24697 20.6876 8.96384 20.5995 8.58788 20.4697C8.21193 20.3399 7.89029 20.2088 7.62295 20.0762C7.35654 19.9446 7.18945 19.8611 7.12168 19.8259C7.05484 19.7916 6.97965 19.749 6.89611 19.698L6.77079 19.6215L6.76802 19.6173L6.76383 19.6146L6.75965 19.6118L6.75687 19.6076L6.74294 19.6007L6.72902 19.5937L6.72625 19.5895L6.72206 19.5867L6.71788 19.584L6.7151 19.5798L6.71233 19.5756L6.70813 19.5728H6.70117V19.545L6.7151 19.5478L6.72902 19.552L6.79168 19.5589C6.83345 19.5636 6.94717 19.5705 7.13282 19.5798C7.31848 19.5891 7.51573 19.5891 7.72459 19.5798C7.93345 19.5705 8.14696 19.5497 8.3651 19.5172C8.58325 19.4848 8.84084 19.4292 9.13789 19.3504C9.43494 19.2716 9.70785 19.1779 9.95664 19.0695C10.2045 18.9601 10.3808 18.8785 10.4858 18.8248C10.5897 18.7719 10.7484 18.6737 10.9619 18.53L11.2822 18.3145L11.285 18.3103L11.2892 18.3075L11.2933 18.3047L11.2961 18.3006L11.2989 18.2964L11.3031 18.2936L11.3073 18.2908L11.31 18.2866L11.324 18.2825L11.3379 18.2797L11.3407 18.2658L11.3449 18.2519L11.349 18.2491L11.3518 18.2449L11.2404 18.238C11.1662 18.2334 11.0942 18.2287 11.0246 18.2241C10.955 18.2194 10.8459 18.1986 10.6974 18.1615C10.5489 18.1244 10.3887 18.0688 10.217 17.9946C10.0453 17.9205 9.87819 17.8324 9.71574 17.7305C9.5533 17.6285 9.43586 17.5437 9.36346 17.476C9.29198 17.4092 9.19915 17.3147 9.08497 17.1923C8.97173 17.0691 8.87333 16.9425 8.78978 16.8127C8.70624 16.683 8.62641 16.5332 8.5503 16.3636L8.43472 16.1105L8.42776 16.0897L8.4208 16.0688L8.41662 16.0549L8.41383 16.041L8.43472 16.0438L8.45561 16.048L8.60877 16.0688C8.71089 16.0827 8.87102 16.0874 9.08915 16.0827C9.3073 16.0781 9.45814 16.0688 9.54168 16.0549C9.62523 16.041 9.67629 16.0317 9.69485 16.0271L9.7227 16.0202L9.75751 16.0132L9.79232 16.0063L9.7951 16.0021L9.79928 15.9993L9.80347 15.9965L9.80624 15.9923L9.77839 15.9854L9.75055 15.9784L9.7227 15.9715L9.69485 15.9645L9.667 15.9576C9.64844 15.953 9.61596 15.9437 9.56953 15.9298C9.52312 15.9159 9.39781 15.8649 9.19358 15.7768C8.98937 15.6888 8.82692 15.603 8.70624 15.5196C8.58526 15.4359 8.46991 15.3444 8.36092 15.2457C8.25231 15.1455 8.13304 15.0167 8.00307 14.8591C7.87312 14.7015 7.75709 14.5184 7.65497 14.3099C7.55287 14.1013 7.47628 13.902 7.42522 13.712C7.37437 13.523 7.34082 13.3299 7.32498 13.1349L7.29991 12.8429L7.31383 12.8457L7.32776 12.8499L7.34168 12.8568L7.3556 12.8638L7.36953 12.8707L7.38345 12.8777L7.59928 12.975C7.74317 13.0399 7.92185 13.0955 8.13535 13.1419C8.34886 13.1882 8.47649 13.2137 8.51826 13.2183L8.58092 13.2253H8.70624L8.70347 13.2211L8.69928 13.2183L8.6951 13.2156L8.69232 13.2114L8.68954 13.2072L8.68535 13.2044L8.68118 13.2016L8.67839 13.1975L8.66447 13.1905L8.65054 13.1836L8.64777 13.1794L8.64358 13.1766L8.6394 13.1738L8.63662 13.1697L8.6227 13.1627L8.60877 13.1558L8.606 13.1516C8.60322 13.1497 8.56329 13.1201 8.48624 13.0626C8.41012 13.0042 8.33029 12.9287 8.24674 12.836C8.1632 12.7432 8.07966 12.6459 7.99611 12.5439C7.91241 12.4418 7.83786 12.3324 7.77333 12.2172C7.70836 12.1013 7.63965 11.9539 7.56725 11.775C7.49578 11.597 7.44147 11.4177 7.40434 11.2369C7.36722 11.0561 7.34633 10.8777 7.34168 10.7016C7.33704 10.5254 7.34168 10.3748 7.3556 10.2497C7.36953 10.1245 7.39738 9.98314 7.43915 9.82555C7.48092 9.66797 7.54127 9.50111 7.62016 9.32498L7.73852 9.06079L7.74548 9.03993L7.75244 9.01907L7.75663 9.01629L7.7594 9.01212L7.76219 9.00795L7.76636 9.00517L7.77056 9.00795L7.77333 9.01212L7.77611 9.01629L7.78029 9.01907L7.78448 9.02185L7.78725 9.02603L7.79004 9.0302L7.79421 9.03298L7.80117 9.04688L7.80814 9.06079L7.81233 9.06357L7.8151 9.06774L8.00307 9.27631C8.12839 9.41536 8.27692 9.57064 8.44864 9.74212C8.62038 9.91361 8.71553 10.0026 8.73409 10.0091C8.75266 10.0165 8.77586 10.0378 8.80371 10.0731C8.83156 10.1074 8.92439 10.1894 9.08219 10.3192C9.24001 10.4489 9.44654 10.5996 9.70181 10.7711C9.9571 10.9426 10.2402 11.1118 10.5512 11.2786C10.8622 11.4455 11.1963 11.5961 11.5537 11.7305C11.9111 11.8649 12.1617 11.953 12.3056 11.9947C12.4495 12.0364 12.6955 12.0897 13.0436 12.1546C13.3917 12.2195 13.6539 12.2612 13.8303 12.2798C14.0067 12.2983 14.1274 12.309 14.1923 12.3117L14.2898 12.3145L14.287 12.2937L14.2828 12.2728L14.255 12.099C14.2364 11.9831 14.2271 11.8209 14.2271 11.6123C14.2271 11.4038 14.2434 11.2114 14.2759 11.0353C14.3084 10.8591 14.3571 10.6807 14.4221 10.4999C14.4871 10.3192 14.5507 10.1741 14.6128 10.0647C14.676 9.95626 14.7586 9.83251 14.8607 9.69346C14.9628 9.55441 15.0951 9.41073 15.2575 9.26241C15.42 9.11408 15.6056 8.98199 15.8145 8.86612C16.0233 8.75025 16.216 8.66218 16.3923 8.60193C16.5687 8.54168 16.7172 8.50227 16.8379 8.48374C16.9586 8.4652 17.0189 8.45454 17.0189 8.45176V8.45176Z" fill="white"/>
</g>
<defs>
<clipPath id="clip0">
<rect width="29" height="29" fill="white"/>
</clipPath>
</defs>
</svg>
