<svg width="72" height="72" viewBox="0 0 72 72" fill="none" xmlns="http://www.w3.org/2000/svg">
<rect width="72" height="72" fill="#F2F5FF"/>
<path d="M50.3098 18.5652C50.0322 18.195 49.6723 17.8946 49.2584 17.6877C48.8446 17.4808 48.3883 17.373 47.9256 17.373H24.0831C23.6204 17.373 23.1641 17.4808 22.7503 17.6877C22.3365 17.8946 21.9765 18.195 21.6989 18.5652L15.0687 27.4087C14.6663 27.9456 14.4568 28.6024 14.4741 29.2731C14.4914 29.9438 14.7345 30.589 15.164 31.1043L33.7175 53.556C33.9972 53.89 34.3468 54.1586 34.7415 54.343C35.1363 54.5273 35.5667 54.6228 36.0024 54.6228C36.4381 54.6228 36.8684 54.5273 37.2632 54.343C37.658 54.1586 38.0075 53.89 38.2873 53.556L56.8407 31.1043C57.2702 30.589 57.5133 29.9438 57.5306 29.2731C57.5479 28.6024 57.3384 27.9456 56.9361 27.4087L50.3098 18.5652Z" stroke="#0061FF" stroke-width="2" stroke-linecap="round" stroke-linejoin="round"/>
<path d="M22.7161 17.7048L36.0043 54.6269" stroke="#0061FF" stroke-width="2" stroke-linecap="round" stroke-linejoin="round"/>
<path d="M49.2906 17.7048L36.0044 54.6269" stroke="#0061FF" stroke-width="2" stroke-linecap="round" stroke-linejoin="round"/>
<path d="M14.4685 29.2942H57.53" stroke="#0061FF" stroke-width="2" stroke-linecap="round" stroke-linejoin="round"/>
<path d="M27.0635 29.2943L36.0044 17.373L44.9453 29.2943" stroke="#0061FF" stroke-width="2" stroke-linecap="round" stroke-linejoin="round"/>
</svg>
