<svg width="14" height="18" viewBox="0 0 14 18" fill="none" xmlns="http://www.w3.org/2000/svg">
<path fill-rule="evenodd" clip-rule="evenodd" d="M7.15385 1.5C5.65435 1.5 4.21627 2.09567 3.15597 3.15597C2.09567 4.21627 1.5 5.65435 1.5 7.15385C1.5 9.97457 3.19575 11.7284 4.87143 13.4616C5.10972 13.708 5.3476 13.954 5.58014 14.2027L5.58348 14.2062L5.58346 14.2062C6.14343 14.8168 6.66782 15.4588 7.1541 16.129C7.64201 15.4571 8.16779 14.8133 8.72896 14.2007L8.73239 14.197L8.7324 14.197C8.96488 13.9483 9.20262 13.7023 9.44071 13.456C11.1155 11.7229 12.8077 9.97187 12.8077 7.15385C12.8077 5.65435 12.212 4.21627 11.1517 3.15597C10.0914 2.09567 8.65334 1.5 7.15385 1.5ZM2.44887 2.44887C3.6967 1.20103 5.38914 0.5 7.15385 0.5C8.91856 0.5 10.611 1.20103 11.8588 2.44887C13.1067 3.6967 13.8077 5.38914 13.8077 7.15385C13.8077 10.4059 11.8036 12.4654 10.1375 14.1777C9.90444 14.4172 9.67801 14.6499 9.4646 14.8781C8.77459 15.6315 8.14065 16.4344 7.56787 17.2803C7.47481 17.4178 7.31963 17.5001 7.15365 17.5C6.98768 17.4999 6.83255 17.4175 6.7396 17.28C6.16898 16.4358 5.53676 15.635 4.84812 14.8839C4.63468 14.6558 4.40813 14.4231 4.17492 14.1835C2.50788 12.4712 0.5 10.4088 0.5 7.15385C0.5 5.38914 1.20103 3.6967 2.44887 2.44887ZM5.05986 5.05973C5.61526 4.50434 6.36854 4.19232 7.15399 4.19232C7.93944 4.19232 8.69272 4.50434 9.24811 5.05973C9.80351 5.61513 10.1155 6.36841 10.1155 7.15386C10.1155 7.93931 9.80351 8.69258 9.24811 9.24798C8.69272 9.80338 7.93944 10.1154 7.15399 10.1154C6.36854 10.1154 5.61526 9.80338 5.05986 9.24798C4.50447 8.69258 4.19245 7.93931 4.19245 7.15386C4.19245 6.36841 4.50447 5.61513 5.05986 5.05973ZM7.15399 5.19232C6.63375 5.19232 6.13483 5.39898 5.76697 5.76684C5.39911 6.1347 5.19245 6.63362 5.19245 7.15386C5.19245 7.67409 5.39911 8.17301 5.76697 8.54087C6.13483 8.90873 6.63375 9.1154 7.15399 9.1154C7.67422 9.1154 8.17314 8.90873 8.541 8.54087C8.90886 8.17301 9.11553 7.67409 9.11553 7.15386C9.11553 6.63362 8.90886 6.1347 8.541 5.76684C8.17314 5.39898 7.67422 5.19232 7.15399 5.19232Z" fill="#686781"/>
</svg>
