<svg width="113" height="26" viewBox="0 0 113 26" fill="none" xmlns="http://www.w3.org/2000/svg">
<path d="M18.841 25.1943L11.4382 25.0574C9.04125 25.0098 6.63842 25.105 4.28859 24.611C0.713796 23.8729 0.460556 20.254 0.195538 17.2184C-0.169597 12.9507 -0.0282544 8.60561 0.660792 4.37361C1.04949 1.99869 2.5807 0.582077 4.94819 0.427321C12.94 -0.132183 20.9847 -0.0667096 28.9588 0.195186C29.801 0.218995 30.649 0.349943 31.4794 0.498747C35.5784 1.22491 35.6785 5.32596 35.9435 8.77822C36.2085 12.2662 36.0966 15.772 35.5902 19.2362C35.1838 22.1051 34.4064 24.5098 31.1261 24.742C27.0154 25.0455 22.9989 25.2896 18.8764 25.2122C18.8764 25.1943 18.8528 25.1943 18.841 25.1943V25.1943ZM14.4888 17.9327C17.5866 16.1351 20.6255 14.3673 23.7056 12.5817C20.6019 10.7841 17.5689 9.01631 14.4888 7.23066V17.9327Z" fill="#FF2E2E"/>
<path d="M95.3215 21.9325C95.1802 22.5159 95.0565 22.9742 94.9328 23.4623H92.0353V0.873535H95.4157V9.20666C95.5924 8.98048 95.6807 8.88524 95.7573 8.78405C96.3344 7.9805 97.0824 7.4567 98.0482 7.25433C99.5853 6.95077 100.899 7.63527 101.364 9.12928C101.664 10.0578 101.859 11.0519 101.882 12.0221C101.929 14.5161 101.894 17.0041 101.806 19.4981C101.77 20.26 101.541 21.0397 101.252 21.754C100.304 24.1111 97.2061 24.4682 95.669 22.4266C95.5747 22.3016 95.4864 22.1647 95.3215 21.9325V21.9325ZM95.4864 15.7184V19.8493C95.4864 20.5219 95.8398 20.9326 96.5052 21.0873C97.159 21.2421 97.689 20.9861 97.954 20.373C98.0659 20.1171 98.1778 19.8493 98.1837 19.5814C98.2485 17.0577 98.3074 14.5339 98.325 12.0042C98.325 11.534 98.2131 11.0459 98.0718 10.5876C97.8068 9.76022 97.0765 9.51618 96.358 9.99831C95.8162 10.3673 95.4864 10.8911 95.4864 11.5876V15.7184ZM86.2991 7.57575H89.8386V23.4742H87.0765C86.9764 22.873 86.8763 22.254 86.7585 21.5278C86.57 21.8075 86.4581 21.9861 86.3403 22.1647C85.4216 23.5039 84.1201 23.9622 82.583 23.7182C81.2697 23.5039 80.4805 22.4801 80.3038 20.8016C80.2508 20.3016 80.2273 19.7957 80.2273 19.2957C80.2155 15.5755 80.2273 11.8435 80.2273 8.12335V7.56384H83.808V8.21264C83.808 11.8078 83.7962 15.397 83.8197 18.9921C83.8197 19.504 83.8727 20.0338 83.9611 20.5457C84.0612 21.0695 84.4381 21.2599 84.9446 21.2242C85.7632 21.1587 86.3286 20.5457 86.3286 19.7243V8.27811C86.2991 8.04598 86.2991 7.8317 86.2991 7.57575V7.57575ZM61.9293 7.56384H65.4864V8.23645C65.4864 11.8137 65.4746 15.3851 65.4982 18.9505C65.4982 19.4624 65.5453 19.9921 65.6513 20.4921C65.7868 21.0814 66.1283 21.2718 66.7114 21.1945C67.5182 21.0814 68.007 20.5159 68.0129 19.6885V8.30192V7.58765H71.5524V23.4742H68.8021C68.702 22.8849 68.6018 22.2778 68.4723 21.5099C68.2956 21.7778 68.1955 21.9325 68.0954 22.0932C67.1766 23.4563 65.8869 23.9563 64.3144 23.7123C63.0541 23.5218 62.2826 22.5813 62.0471 21.0397C61.9823 20.5576 61.9352 20.0814 61.9352 19.5993C61.9234 15.7363 61.9234 11.8554 61.9234 7.99241L61.9293 7.56384ZM60.1036 16.0517C60.0918 16.5874 60.0565 17.1231 60.027 17.6588C59.8916 19.2659 59.8268 21.5456 58.5429 22.7182C57.7243 23.4563 56.6878 23.7242 55.616 23.7599C55.1389 23.7718 54.656 23.7718 54.179 23.7063C51.9234 23.3611 50.8751 22.3551 50.4982 19.8493C50.0683 16.9565 50.0329 14.0161 50.5453 11.1233C51.0753 8.12931 52.901 7.06981 55.7396 7.26623C58.3898 7.4567 59.5736 9.21261 59.8857 11.7126C60.0565 13.147 60.1389 14.5994 60.1036 16.0517V16.0517ZM56.4994 15.5041C56.4994 14.4863 56.5229 13.4625 56.4876 12.4447C56.464 11.8554 56.3875 11.2602 56.2638 10.6769C56.1224 10.0043 55.6984 9.68284 55.1684 9.69474C54.6501 9.70665 54.285 10.0281 54.0965 10.6531C54.0318 10.8852 53.9611 11.1233 53.9611 11.3554C53.9611 12.9506 53.9493 14.5518 53.9375 16.147C53.9257 17.635 53.7373 19.1945 54.2025 20.6171C54.3439 21.0516 54.709 21.2897 55.1861 21.2897C55.6513 21.2897 55.9575 21.0576 56.1283 20.6409C56.2638 20.3195 56.3816 19.9683 56.3816 19.6231C56.4228 18.2541 56.4994 16.8791 56.4994 15.5041ZM45.3038 12.5102C45.616 10.9685 45.9104 9.46261 46.2343 7.95074C46.6407 6.02817 47.0942 4.1056 47.4947 2.17707C47.5948 1.70685 47.7832 1.59376 48.2249 1.60566C49.1731 1.64137 50.1389 1.61756 51.1519 1.61756C50.8221 2.84372 50.4982 4.01036 50.1802 5.15914C49.1731 8.7662 48.166 12.3852 47.1707 16.0041C47.0942 16.2839 47.0588 16.5874 47.0588 16.885C47.0471 18.8612 47.0588 20.8314 47.0588 22.8075V23.4504H43.6018C43.5901 23.2718 43.5665 23.0932 43.5665 22.9147C43.5665 21.7956 43.4782 20.6707 43.5783 19.5635C43.8315 16.9029 42.9952 14.4565 42.318 11.9804C41.4228 8.70667 40.5159 5.42104 39.6207 2.14731C39.5736 1.99255 39.5559 1.82589 39.5088 1.63542H43.0365C43.7785 5.24843 44.5265 8.86143 45.3038 12.5102ZM112.942 16.6589H106.982C107.047 17.8672 107.071 19.0159 107.194 20.1528C107.283 20.9445 107.713 21.2837 108.39 21.2897C109.097 21.3016 109.509 20.9445 109.674 20.1588C109.727 19.9028 109.762 19.6469 109.786 19.385C109.809 19.1528 109.821 18.9028 109.839 18.5695C110.846 18.6231 111.829 18.6826 112.801 18.7243C113.366 20.4207 112.347 22.5992 110.634 23.2718C109.285 23.8075 107.901 23.8075 106.523 23.3968C105.504 23.0932 104.744 22.4385 104.403 21.4325C104.085 20.4921 103.784 19.51 103.72 18.5279C103.543 16.1053 103.478 13.6589 103.843 11.2304C103.908 10.8257 104.02 10.4388 104.144 10.0459C104.638 8.42692 105.716 7.4329 107.383 7.26623C108.29 7.17695 109.226 7.21266 110.121 7.36742C111.57 7.62337 112.342 8.67691 112.677 10.0578C112.83 10.7066 112.942 11.3733 112.966 12.034C112.972 13.5518 112.942 15.0577 112.942 16.6589ZM109.556 14.5696C109.556 13.3732 109.568 12.2483 109.544 11.1173C109.544 10.8495 109.444 10.5697 109.344 10.3138C109.144 9.81379 108.725 9.67689 108.225 9.67689C107.724 9.67689 107.406 9.93283 107.283 10.3912C106.906 11.7661 107.029 13.1708 107.041 14.5815C107.942 14.5696 108.761 14.5696 109.556 14.5696V14.5696Z" fill="black"/>
<path d="M74.2849 4.53451H70.7808V1.66553H81.2401V4.51665H77.7595V23.4507H74.2908L74.2849 4.53451Z" fill="black"/>
</svg>
