<svg width="107" height="36" viewBox="0 0 107 36" fill="none" xmlns="http://www.w3.org/2000/svg">
<path d="M13.6576 0.336914H14.5943C17.8463 0.408364 21.0452 1.7302 23.3428 4.0702C22.4944 4.94546 21.6284 5.78501 20.7978 6.66027C19.5076 5.48134 17.9523 4.57035 16.2556 4.24882C13.746 3.71294 11.0419 4.19523 8.93871 5.6421C6.64113 7.16042 5.08584 9.73264 4.75004 12.4835C4.37889 15.1986 5.13886 18.0566 6.88856 20.1644C8.56756 22.2186 11.1302 23.5047 13.7813 23.594C16.2556 23.7369 18.836 22.9688 20.6387 21.2183C22.0526 19.9858 22.7065 18.1102 22.9186 16.2882C19.9848 16.2882 17.0509 16.3061 14.1171 16.2882V12.6085H26.471C27.1073 16.5561 26.1882 21.0039 23.2191 23.8262C21.2396 25.8268 18.5002 27.0058 15.7077 27.238C13.0037 27.5059 10.2112 26.9879 7.80759 25.6661C4.92678 24.112 2.62919 21.4862 1.49808 18.396C0.437653 15.5558 0.419979 12.3406 1.40971 9.48256C2.31107 6.87462 4.04309 4.57035 6.26998 2.96272C8.4085 1.37294 11.0065 0.497677 13.6576 0.336914Z" fill="#4285F4"/>
<path d="M84.5303 1.26587H88.3124V26.7736C87.0576 26.7736 85.7851 26.7915 84.5303 26.7557C84.5479 18.271 84.5303 9.76845 84.5303 1.26587Z" fill="#34A853"/>
<path d="M34.8832 10.1077C37.2161 9.66111 39.7435 10.1613 41.6699 11.5724C43.4196 12.8228 44.6391 14.7876 45.0102 16.9311C45.4874 19.414 44.8865 22.1291 43.2959 24.094C41.5815 26.2911 38.7714 27.47 36.032 27.2914C33.5223 27.1485 31.0833 25.8802 29.5987 23.8082C27.9197 21.5218 27.5132 18.378 28.4323 15.6986C29.3513 12.8228 31.9494 10.6257 34.8832 10.1077ZM35.4134 13.5015C34.459 13.7516 33.5753 14.3053 32.9391 15.0913C31.2247 17.1633 31.3308 20.5393 33.2219 22.4685C34.3 23.576 35.9259 24.094 37.4282 23.7903C38.8244 23.5402 40.0439 22.5935 40.7155 21.3432C41.882 19.2175 41.5462 16.2881 39.7611 14.6269C38.6123 13.5551 36.9333 13.1086 35.4134 13.5015Z" fill="#E94235"/>
<path d="M53.6179 10.1078C56.2866 9.58975 59.2028 10.34 61.1999 12.2334C64.4519 15.1808 64.8053 20.7003 62.0306 24.0942C60.3516 26.2377 57.6298 27.4167 54.9434 27.2916C52.3807 27.2202 49.8534 25.9341 48.3334 23.8084C46.6191 21.4684 46.2479 18.2531 47.22 15.5201C48.192 12.7336 50.7371 10.6079 53.6179 10.1078ZM54.1481 13.5017C53.1937 13.7517 52.31 14.3055 51.6738 15.0736C49.9771 17.1099 50.0478 20.4324 51.8682 22.3794C52.9463 23.5405 54.6253 24.1121 56.1806 23.7905C57.5591 23.5226 58.7963 22.5937 59.4679 21.3434C60.6167 19.1998 60.2809 16.2704 58.4781 14.6091C57.3294 13.5374 55.6503 13.1087 54.1481 13.5017Z" fill="#FABB05"/>
<path d="M69.5077 11.1439C71.5402 9.85776 74.2443 9.50051 76.4359 10.608C77.1251 10.9116 77.6907 11.4297 78.2386 11.9477C78.2562 11.4654 78.2386 10.9652 78.2562 10.4651C79.4404 10.4829 80.6245 10.4651 81.8263 10.4829V26.2377C81.8087 28.6134 81.2078 31.1321 79.5111 32.8647C77.6553 34.776 74.8099 35.3655 72.2472 34.9725C69.5077 34.5617 67.1218 32.5432 66.0614 29.9889C67.1218 29.4708 68.2352 29.06 69.331 28.5777C69.9496 30.0424 71.2044 31.2928 72.7774 31.5786C74.3503 31.8644 76.1707 31.4715 77.1958 30.1496C78.2916 28.7921 78.2916 26.9344 78.2386 25.2731C77.4256 26.077 76.4889 26.7915 75.3578 27.0594C72.9011 27.756 70.197 26.8986 68.3059 25.2196C66.3972 23.5405 65.266 20.9504 65.3721 18.3782C65.4251 15.4666 67.0511 12.6622 69.5077 11.1439ZM73.1662 13.4303C72.0881 13.6089 71.0807 14.2162 70.3914 15.0558C68.7301 17.0564 68.7301 20.2538 70.4091 22.2186C71.3635 23.3797 72.9011 24.0228 74.3857 23.862C75.7819 23.7191 77.0721 22.826 77.7614 21.5935C78.9278 19.5035 78.7334 16.6634 77.1605 14.8414C76.1884 13.7161 74.6331 13.1623 73.1662 13.4303Z" fill="#4285F4"/>
<path d="M92.8535 12.0548C94.9744 10.0542 98.244 9.37539 100.966 10.4293C103.546 11.4117 105.19 13.8946 106.02 16.449C102.185 18.0566 98.3677 19.6464 94.5325 21.254C95.0627 22.2722 95.8757 23.201 96.9715 23.5761C98.5091 24.1299 100.347 23.9334 101.637 22.8974C102.15 22.5044 102.556 21.9864 102.945 21.4862C103.917 22.1471 104.889 22.7902 105.861 23.4511C104.483 25.541 102.168 27.0057 99.6756 27.238C96.9185 27.5774 93.9846 26.5056 92.1996 24.3264C89.2658 20.8967 89.5485 15.145 92.8535 12.0548ZM94.7446 15.3594C94.1437 16.2346 93.8963 17.3064 93.914 18.3603C96.4766 17.2885 99.0393 16.2168 101.602 15.1271C101.178 14.1268 100.153 13.5195 99.11 13.3587C97.431 13.0551 95.6813 13.9661 94.7446 15.3594Z" fill="#E94235"/>
</svg>
