<svg width="117" height="23" viewBox="0 0 117 23" fill="none" xmlns="http://www.w3.org/2000/svg">
<path d="M7.351 22.3487H2.97857V11.3323H0V7.74562H2.97846V5.19342C2.97846 2.16906 4.29584 0 8.65642 0C9.57869 0 11.0266 0.187879 11.0266 0.187879V3.51834H9.50582C7.95625 3.51834 7.35123 3.99472 7.35123 5.31175V7.74562H10.9686L10.6465 11.3323H7.35111L7.351 22.3487ZM17.3836 7.45899C17.3199 7.45899 17.2544 7.46134 17.1895 7.46298C13.1351 7.46298 11.2802 10.5453 11.2802 14.9207C11.2802 20.4325 13.6863 22.6385 17.2212 22.6385C19.2436 22.6385 20.5723 21.7782 21.38 20.1726V22.3502H25.5388V7.74715H21.38V9.9929C20.7205 8.54804 19.3546 7.47612 17.3836 7.45899ZM18.4411 10.9097C20.1439 10.9097 21.166 12.1101 21.166 14.152L21.1699 16.2376C21.1699 17.6139 20.3258 19.224 18.4411 19.224C15.5436 19.224 15.621 16.0619 15.621 15.0088C15.621 11.4661 17.1648 10.9097 18.4411 10.9097ZM27.2183 15.0495C27.2183 13.2749 27.1343 7.46849 34.6192 7.46849C37.6238 7.46849 38.8784 8.43404 38.8784 8.43404L37.87 11.595C37.87 11.595 36.617 10.8977 34.9844 10.8977C32.8932 10.8977 31.5589 12.1229 31.5589 14.2786L31.5612 15.8243C31.5612 17.8957 32.8487 19.2784 34.9887 19.2784C36.476 19.2784 37.8469 18.5745 37.8469 18.5745L38.8527 21.6694C38.8527 21.6694 37.7056 22.6411 34.6402 22.6411C27.5134 22.6411 27.2184 17.4316 27.2184 15.0495H27.2183ZM63.2629 7.46298C67.3174 7.46298 69.2016 10.5453 69.2016 14.9207C69.2016 20.4325 66.7953 22.6385 63.2605 22.6385C61.238 22.6385 59.743 21.7783 58.9354 20.1726V22.3502L54.8289 22.3486V0.444014L59.1889 0.0596945V9.79505C59.8182 8.09183 61.8862 7.46298 63.263 7.46298H63.2629ZM62.0406 10.9097C60.3377 10.9097 59.1889 12.1101 59.1889 14.152L59.1849 16.2376C59.1823 17.6139 59.9804 19.224 62.0406 19.224C64.938 19.224 64.8606 16.0619 64.8606 15.0088C64.8606 11.4661 63.317 10.9097 62.0406 10.9097ZM46.4433 7.47506C41.8447 7.47506 39.417 10.0091 39.417 14.5123V15.349C39.417 21.1938 42.8263 22.6986 46.8909 22.6986C50.8416 22.6986 52.6299 21.5817 52.6299 21.5817L51.814 18.6076C51.814 18.6076 49.7105 19.5121 47.4136 19.5121C45.0325 19.5121 44.0085 18.8988 43.746 16.586H52.9785V14.2C52.9785 9.31515 50.2538 7.47494 46.4432 7.47494L46.4433 7.47506ZM46.5541 10.4532C48.1459 10.4532 49.1774 11.4398 49.1208 13.7277H43.754C43.8471 11.3197 44.9594 10.4533 46.5541 10.4533V10.4532ZM77.8953 7.45501C73.1729 7.45501 70.6868 10.1447 70.6868 14.9647C70.6868 21.578 74.9723 22.6425 77.9032 22.6425C82.1938 22.6425 85.0483 20.3078 85.0483 15.0247C85.0483 9.5259 81.8387 7.45501 77.8953 7.45501V7.45501ZM77.8359 10.9216C79.9124 10.9216 80.7352 12.4923 80.7352 14.2802V15.8174C80.7352 17.9833 79.5838 19.236 77.828 19.236C76.1858 19.236 75.0317 18.0642 75.0317 15.8174V14.2802C75.0317 11.884 76.405 10.9216 77.8359 10.9216V10.9216ZM93.7342 7.45501C89.0118 7.45501 86.5257 10.1447 86.5257 14.9647C86.5257 21.578 90.8112 22.6425 93.7421 22.6425C98.0326 22.6425 100.887 20.3078 100.887 15.0247C100.887 9.5259 97.6775 7.45501 93.7342 7.45501V7.45501ZM93.6748 10.9216C95.7513 10.9216 96.574 12.4923 96.574 14.2802V15.8174C96.574 17.9833 95.4227 19.236 93.6669 19.236C92.0247 19.236 90.8706 18.0642 90.8706 15.8174V14.2802C90.8706 11.884 92.2439 10.9216 93.6748 10.9216V10.9216ZM102.535 22.3487V0.444014L106.908 0.0596945V14.7416L111.246 7.74562H115.864L111.338 14.9914L116.038 22.3487H111.407L106.908 15.2049V22.3487H102.535Z" fill="#0578FF"/>
</svg>
