<svg width="256" height="256" viewBox="0 0 256 256" fill="none" xmlns="http://www.w3.org/2000/svg">
<rect width="256" height="256" rx="40" fill="#0061FF"/>
<rect x="40.3783" y="79.7025" width="175.243" height="119.919" rx="10.2402" stroke="white" stroke-width="16.7566"/>
<mask id="path-3-inside-1" fill="white">
<path d="M163.627 59.5424C163.627 52.2377 159.873 45.2322 153.191 40.067C146.509 34.9018 137.446 32 127.997 32C118.547 32 109.485 34.9018 102.803 40.067C96.121 45.2322 92.3672 52.2377 92.3672 59.5424L109.941 59.5424C109.941 55.8406 111.843 52.2905 115.229 49.6729C118.616 47.0554 123.208 45.5849 127.997 45.5849C132.786 45.5849 137.378 47.0554 140.764 49.6729C144.15 52.2905 146.053 55.8406 146.053 59.5424H163.627Z"/>
</mask>
<path d="M163.627 59.5424C163.627 52.2377 159.873 45.2322 153.191 40.067C146.509 34.9018 137.446 32 127.997 32C118.547 32 109.485 34.9018 102.803 40.067C96.121 45.2322 92.3672 52.2377 92.3672 59.5424L109.941 59.5424C109.941 55.8406 111.843 52.2905 115.229 49.6729C118.616 47.0554 123.208 45.5849 127.997 45.5849C132.786 45.5849 137.378 47.0554 140.764 49.6729C144.15 52.2905 146.053 55.8406 146.053 59.5424H163.627Z" fill="#C4C4C4" stroke="white" stroke-width="18.6185" mask="url(#path-3-inside-1)"/>
<mask id="path-4-inside-2" fill="white">
<path d="M101.153 130.773C96.2996 130.773 92.237 134.852 94.1254 139.322C95.8495 143.403 98.8006 147.156 102.801 150.248C109.483 155.414 118.546 158.315 127.995 158.315C137.445 158.315 146.507 155.414 153.189 150.248C157.19 147.156 160.141 143.403 161.865 139.322C163.754 134.852 159.691 130.773 154.838 130.773V130.773C149.985 130.773 146.069 135.124 142.826 138.734C142.217 139.412 141.528 140.051 140.763 140.643C137.377 143.26 132.784 144.731 127.995 144.731C123.207 144.731 118.614 143.26 115.228 140.643C114.463 140.051 113.773 139.412 113.164 138.734C109.921 135.124 106.005 130.773 101.153 130.773V130.773Z"/>
</mask>
<path d="M101.153 130.773C96.2996 130.773 92.237 134.852 94.1254 139.322C95.8495 143.403 98.8006 147.156 102.801 150.248C109.483 155.414 118.546 158.315 127.995 158.315C137.445 158.315 146.507 155.414 153.189 150.248C157.19 147.156 160.141 143.403 161.865 139.322C163.754 134.852 159.691 130.773 154.838 130.773V130.773C149.985 130.773 146.069 135.124 142.826 138.734C142.217 139.412 141.528 140.051 140.763 140.643C137.377 143.26 132.784 144.731 127.995 144.731C123.207 144.731 118.614 143.26 115.228 140.643C114.463 140.051 113.773 139.412 113.164 138.734C109.921 135.124 106.005 130.773 101.153 130.773V130.773Z" fill="#C4C4C4" stroke="white" stroke-width="18.6185" mask="url(#path-4-inside-2)"/>
</svg>
